<svg id="SvgjsSvg1014" xmlns="http://www.w3.org/2000/svg" version="1.1" xmlns:xlink="http://www.w3.org/1999/xlink" xmlns:svgjs="http://svgjs.com/svgjs" width="22" height="19" viewBox="0 0 22 19"><title>Вход copy</title><desc>Created with Avocode.</desc><defs id="SvgjsDefs1015"></defs><path id="SvgjsPath1016" d="M522 655.969L522 655.008C522 653.351 523.343 652.008 525 652.008L536.059 652.008C537.716 652.008 539.059 653.351 539.059 655.008L539.059 667.985C539.059 669.642 537.716 670.985 536.059 670.985L525 670.985C523.343 670.985 522 669.642 522 667.985L522 667L524 667L524 669L537 669L537 654L524 654L524 655.969ZM518.995 658.901L525.024 658.901L525.024 656.1579999999999L532.051 661.4579999999999L525.024 666.7579999999998L525.024 664.0149999999998L518.995 664.0149999999998Z " fill="#353535" fill-opacity="0.99" transform="matrix(1,0,0,1,-518,-652)"></path></svg>