<svg id="SvgjsSvg1017" xmlns="http://www.w3.org/2000/svg" version="1.1" xmlns:xlink="http://www.w3.org/1999/xlink" xmlns:svgjs="http://svgjs.com/svgjs" width="21" height="20" viewBox="0 0 21 20"><title>Корзина</title><desc>Created with Avocode.</desc><defs id="SvgjsDefs1018"></defs><path id="SvgjsPath1019" d="M1083.58 604.46L1082.37 613.3720000000001C1082.1899999999998 614.2940000000001 1081.35 615.0070000000001 1080.4899999999998 615.0070000000001L1069.6099999999997 615.0070000000001C1068.7499999999998 615.0070000000001 1067.9099999999996 614.2940000000001 1067.7299999999996 613.3720000000001L1066.2599999999995 603.085C1066.1199999999994 602.3530000000001 1066.1099999999994 602.109 1066.1299999999994 602.0310000000001L1063.9999999999993 602.0310000000001C1063.4499999999994 602.0310000000001 1062.9999999999993 601.5830000000001 1062.9999999999993 601.0310000000001C1062.9999999999993 600.4780000000001 1063.4499999999994 600.0300000000001 1063.9999999999993 600.0300000000001L1067.9999999999993 600.0300000000001C1068.5499999999993 600.0300000000001 1068.9999999999993 600.4780000000001 1068.9999999999993 601.0310000000001C1068.9999999999993 601.547 1068.5999999999992 601.956 1068.0999999999992 602.0100000000001L1082.0699999999993 602.0100000000001C1083.1699999999992 602.0100000000001 1083.8399999999992 603.1410000000001 1083.5799999999992 604.4600000000002ZM1080.4 612.978C1080.4 612.978 1080.4 612.9749999999999 1080.41 612.9639999999999L1081.5900000000001 604.1759999999999L1081.6200000000001 603.978L1068.42 603.978L1069.73 612.978ZM1070.25 615.987C1071.28 615.987 1072.12 616.826 1072.12 617.861C1072.12 618.896 1071.28 619.735 1070.25 619.735C1069.21 619.735 1068.37 618.896 1068.37 617.861C1068.37 616.826 1069.2099999999998 615.987 1070.25 615.987ZM1079.25 615.987C1080.28 615.987 1081.12 616.826 1081.12 617.861C1081.12 618.896 1080.28 619.735 1079.25 619.735C1078.21 619.735 1077.37 618.896 1077.37 617.861C1077.37 616.826 1078.2099999999998 615.987 1079.25 615.987Z " fill="#ffffff" fill-opacity="1" transform="matrix(1,0,0,1,-1063,-600)"></path></svg>