<svg id="SvgjsSvg1000" xmlns="http://www.w3.org/2000/svg" version="1.1" xmlns:xlink="http://www.w3.org/1999/xlink" xmlns:svgjs="http://svgjs.com/svgjs" width="33" height="38" viewBox="0 0 33 38"><title>ла</title><desc>Created with Avocode.</desc><defs id="SvgjsDefs1001"><filter id="SvgjsFilter1008" width="200%" height="200%" x="-50%" y="-50%"><feMorphology id="SvgjsFeMorphology1009" operator="dilate" radius="0" result="SvgjsFeMorphology1009Out" in="SourceGraphic"></feMorphology><feOffset id="SvgjsFeOffset1010" dx="0.5" dy="0.9" result="SvgjsFeOffset1010Out" in="SvgjsFeMorphology1009Out"></feOffset><feGaussianBlur id="SvgjsFeGaussianBlur1011" stdDeviation="1.5 " result="SvgjsFeGaussianBlur1011Out" in="SvgjsFeOffset1010Out"></feGaussianBlur><feComposite id="SvgjsFeComposite1012" in="SvgjsFeGaussianBlur1011Out" in2="SourceAlpha" operator="out" result="SvgjsFeComposite1012Out"></feComposite></filter></defs><path id="SvgjsPath1007" d="M108.644 1146.63L112.32600000000001 1146.63L112.32600000000001 1132.14L121.215 1132.14C125.12400000000001 1132.14 127.241 1132.3200000000002 128.46800000000002 1132.64C132.10500000000002 1133.5900000000001 134.877 1136.8600000000001 134.877 1141.95C134.877 1147.77 131.15 1150.82 127.78600000000002 1151.54C126.24100000000001 1151.86 124.44200000000002 1152 121.53300000000002 1152L118.49400000000001 1152L118.49400000000001 1154.73L133.514 1154.73L133.514 1160.09L118.49400000000001 1160.09L118.49400000000001 1164L112.32600000000001 1164L112.32600000000001 1160.09L108.644 1160.09L108.644 1154.73L112.32600000000001 1154.73L112.32600000000001 1152L108.644 1152ZM118.494 1137.54L118.494 1146.59L120.852 1146.59C123.397 1146.59 124.65 1146.4099999999999 125.51400000000001 1146.09C127.15 1145.5 128.241 1143.9099999999999 128.241 1142.04C128.241 1139.73 126.69600000000001 1138.1299999999999 124.65000000000002 1137.77C123.87700000000002 1137.6299999999999 122.76100000000002 1137.54 120.44200000000002 1137.54Z " fill="#313235" fill-opacity="0.5" filter="url(#SvgjsFilter1008)" transform="matrix(1,0,0,1,-105.5,-1129.9)"></path><path id="SvgjsPath1013" d="M108.644 1146.63L112.32600000000001 1146.63L112.32600000000001 1132.14L121.215 1132.14C125.12400000000001 1132.14 127.241 1132.3200000000002 128.46800000000002 1132.64C132.10500000000002 1133.5900000000001 134.877 1136.8600000000001 134.877 1141.95C134.877 1147.77 131.15 1150.82 127.78600000000002 1151.54C126.24100000000001 1151.86 124.44200000000002 1152 121.53300000000002 1152L118.49400000000001 1152L118.49400000000001 1154.73L133.514 1154.73L133.514 1160.09L118.49400000000001 1160.09L118.49400000000001 1164L112.32600000000001 1164L112.32600000000001 1160.09L108.644 1160.09L108.644 1154.73L112.32600000000001 1154.73L112.32600000000001 1152L108.644 1152ZM118.494 1137.54L118.494 1146.59L120.852 1146.59C123.397 1146.59 124.65 1146.4099999999999 125.51400000000001 1146.09C127.15 1145.5 128.241 1143.9099999999999 128.241 1142.04C128.241 1139.73 126.69600000000001 1138.1299999999999 124.65000000000002 1137.77C123.87700000000002 1137.6299999999999 122.76100000000002 1137.54 120.44200000000002 1137.54Z " fill="#ffffff" fill-opacity="1" transform="matrix(1,0,0,1,-105.5,-1129.9)"></path></svg>