<svg id="SvgjsSvg1020" xmlns="http://www.w3.org/2000/svg" version="1.1" xmlns:xlink="http://www.w3.org/1999/xlink" xmlns:svgjs="http://svgjs.com/svgjs" width="21" height="20" viewBox="0 0 21 20"><title>Корзина</title><desc>Created with Avocode.</desc><defs id="SvgjsDefs1021"></defs><path id="SvgjsPath1022" d="M1083.58 656.46L1082.37 665.3720000000001C1082.1899999999998 666.2940000000001 1081.35 667.0070000000001 1080.4899999999998 667.0070000000001L1069.6099999999997 667.0070000000001C1068.7499999999998 667.0070000000001 1067.9099999999996 666.2940000000001 1067.7299999999996 665.3720000000001L1066.2599999999995 655.085C1066.1199999999994 654.3530000000001 1066.1099999999994 654.109 1066.1299999999994 654.0310000000001L1063.9999999999993 654.0310000000001C1063.4499999999994 654.0310000000001 1062.9999999999993 653.5830000000001 1062.9999999999993 653.0300000000001C1062.9999999999993 652.4780000000001 1063.4499999999994 652.0310000000001 1063.9999999999993 652.0310000000001L1067.9999999999993 652.0310000000001C1068.5499999999993 652.0310000000001 1068.9999999999993 652.4780000000001 1068.9999999999993 653.0300000000001C1068.9999999999993 653.5470000000001 1068.5999999999992 653.9560000000001 1068.0999999999992 654.0100000000001L1082.0699999999993 654.0100000000001C1083.1699999999992 654.0100000000001 1083.8399999999992 655.1410000000001 1083.5799999999992 656.4600000000002ZM1080.4 664.978C1080.4 664.978 1080.4 664.9749999999999 1080.41 664.9639999999999L1081.5900000000001 656.1759999999999L1081.6200000000001 655.978L1068.42 655.978L1069.73 664.978ZM1070.25 667.987C1071.28 667.987 1072.12 668.826 1072.12 669.861C1072.12 670.896 1071.28 671.735 1070.25 671.735C1069.21 671.735 1068.37 670.896 1068.37 669.861C1068.37 668.826 1069.2099999999998 667.987 1070.25 667.987ZM1079.25 667.987C1080.28 667.987 1081.12 668.826 1081.12 669.861C1081.12 670.896 1080.28 671.735 1079.25 671.735C1078.21 671.735 1077.37 670.896 1077.37 669.861C1077.37 668.826 1078.2099999999998 667.987 1079.25 667.987Z " fill="#343434" fill-opacity="1" transform="matrix(1,0,0,1,-1063,-652)"></path></svg>