<svg id="SvgjsSvg1000" xmlns="http://www.w3.org/2000/svg" version="1.1" xmlns:xlink="http://www.w3.org/1999/xlink" xmlns:svgjs="http://svgjs.com/svgjs" width="17" height="17" viewBox="0 0 17 17"><title>Лупа</title><desc>Created with Avocode.</desc><defs id="SvgjsDefs1001"></defs><path id="SvgjsPath1007" d="M280.155 663.747L279.397 663.747L279.133 663.486C280.06399999999996 662.401 280.63 660.995 280.63 659.456C280.63 656.032 277.851 653.2570000000001 274.424 653.2570000000001C270.996 653.2570000000001 268.21799999999996 656.032 268.21799999999996 659.456C268.21799999999996 662.879 270.996 665.654 274.424 665.654C275.96599999999995 665.654 277.373 665.0889999999999 278.45799999999997 664.16L278.72099999999995 664.4219999999999L278.72099999999995 665.1769999999999L283.49399999999997 669.9369999999999L284.917 668.5149999999999ZM274.424 663.747C272.051 663.747 270.12699999999995 661.8259999999999 270.12699999999995 659.4559999999999C270.12699999999995 657.0849999999999 272.05099999999993 655.1639999999999 274.424 655.1639999999999C276.79699999999997 655.1639999999999 278.71999999999997 657.0849999999999 278.71999999999997 659.4559999999999C278.71999999999997 661.8259999999999 276.79699999999997 663.747 274.424 663.747Z " fill="#333333" fill-opacity="1" transform="matrix(1,0,0,1,-268,-653)"></path></svg>